<?xml version="1.0" encoding="UTF-8"?>
<svg xmlns="http://www.w3.org/2000/svg" viewBox="0 0 512 512">
  <path fill="#a855f7" d="M57.89,345.96v-48.12c0-7.33,4.96-13.71,12.05-15.53l42.3-10.86c16.08-4.13,16.06-26.97-.03-31.07l-42.25-10.76c-7.11-1.81-12.08-8.21-12.08-15.54v-48.04c0-8.86,7.18-16.03,16.03-16.03h157.09c8.86,0,16.03,7.18,16.03,16.03v15.63c0,8.86-7.18,16.03-16.03,16.03h-.31c-18.87,0-22.24,26.92-3.96,31.58l8.23,2.1c7.11,1.81,12.08,8.21,12.08,15.54v18.24c0,7.34-4.98,13.73-12.09,15.54l-7.98,2.03c-18.3,4.65-14.93,31.58,3.96,31.58h.08c8.86,0,16.03,7.18,16.03,16.03v15.63c0,8.86-7.18,16.03-16.03,16.03H73.93c-8.86,0-16.03-7.18-16.03-16.03h0Z"/>
  <path fill="#a855f7" d="M454.11,166.01v48.13c0,7.32-4.95,13.7-12.04,15.53l-42.12,10.86c-16.06,4.14-16.04,26.96.03,31.07l42.07,10.76c7.1,1.82,12.07,8.22,12.07,15.54v48.06c0,8.86-7.18,16.03-16.03,16.03h-156.37c-8.86,0-16.03-7.18-16.03-16.03v-15.63c0-8.86,7.18-16.03,16.03-16.03h.24c18.86,0,22.25-26.9,3.98-31.57l-8.18-2.09c-7.1-1.82-12.07-8.22-12.07-15.54v-18.27c0-7.33,4.97-13.72,12.07-15.54l7.93-2.03c18.28-4.67,14.9-31.57-3.97-31.57h0c-8.86,0-16.03-7.18-16.03-16.03v-15.63c0-8.86,7.18-16.03,16.03-16.03h156.37c8.86,0,16.03,7.18,16.03,16.03v-.02Z"/>
</svg>
