<svg xmlns="http://www.w3.org/2000/svg" viewBox="0 0 96 96" role="img" aria-label="Snow weather">
  <defs>
    <linearGradient id="cloud" x1="19" x2="79" y1="25" y2="62" gradientUnits="userSpaceOnUse">
      <stop stop-color="#FFFFFF"/>
      <stop offset="1" stop-color="#C7D2FE"/>
    </linearGradient>
  </defs>
  <path fill="url(#cloud)" stroke="#A78BFA" stroke-width="2.3" d="M25 58h43.5A15 15 0 0 0 70 28.1 21 21 0 0 0 29.7 35 11.4 11.4 0 0 0 25 58Z"/>
  <g stroke="#60A5FA" stroke-linecap="round" stroke-width="3">
    <path d="M32 71v14"/>
    <path d="M25.9 74.5 38.1 81.5"/>
    <path d="M38.1 74.5 25.9 81.5"/>
    <path d="M54 68v16"/>
    <path d="M47.1 72 60.9 80"/>
    <path d="M60.9 72 47.1 80"/>
    <path d="M72 71v14"/>
    <path d="M65.9 74.5 78.1 81.5"/>
    <path d="M78.1 74.5 65.9 81.5"/>
  </g>
</svg>
